<svg xmlns="http://www.w3.org/2000/svg" width="15" height="16">
    <path fill="#FBBB00" fill-rule="evenodd" d="M13.51 15.999H2.81a1.45 1.45 0 0 1-1.457-1.465v-2.996H0v-.68h1.353V8.34H0v-.681h1.353V5.141H0v-.68h1.353V1.465A1.45 1.45 0 0 1 2.81 0h10.733A1.45 1.45 0 0 1 15 1.465v13.069c-.033.818-.677 1.465-1.49 1.465zm.81-1.458V1.465a.788.788 0 0 0-.777-.782H2.81a.788.788 0 0 0-.777.782v3.002h1.288v.681H2.033v2.518h1.288v.68H2.033v2.519h1.291v.68H2.036v2.996c0 .441.371.781.777.781h10.733a.787.787 0 0 0 .777-.781h-.003zm-5.991-2.45c-1.356 0-2.537-.356-3.08-.867-.201-.206.023-3.424 2.199-3.424h1.727c2.173 0 2.338 3.3 2.133 3.474-.507.477-1.623.817-2.979.817zm.882-3.644H7.483c-1.502 0-1.691 2.248-1.658 2.349.407.373 1.389.612 2.504.612 1.116 0 2.098-.236 2.505-.612.035-.105-.137-2.352-1.623-2.349zm-.914-.853a1.825 1.825 0 0 1-1.828-1.838c0-1.021.813-1.838 1.828-1.838 1.014 0 1.828.817 1.828 1.838.035 1.02-.814 1.838-1.828 1.838zm0-2.996c-.644 0-1.187.51-1.187 1.158 0 .648.546 1.158 1.187 1.158.64 0 1.184-.51 1.184-1.158 0-.648-.508-1.158-1.184-1.158z"/>
</svg>
